<?xml version="1.0" encoding="UTF-8"?>
<svg id="_圖層_2" data-name="圖層 2" xmlns="http://www.w3.org/2000/svg" viewBox="0 0 638.9848 599.6885">
  <g id="_Layer_" data-name="&amp;lt;Layer&amp;gt;">
    <polygon points="559.7153 199.8965 559.7153 199.8965 559.7153 119.9512 519.7094 119.9512 519.7094 79.9785 479.7368 79.9785 479.7368 39.9727 399.7583 39.9727 399.7583 0 199.9301 0 199.9301 39.9727 119.9174 39.9727 119.9174 79.9785 79.9448 79.9785 79.9448 119.9512 39.9726 119.9512 39.9726 199.8965 39.9726 199.8965 0 199.8965 0 399.7754 39.9726 399.7754 39.9726 479.7373 79.9448 479.7373 79.9448 519.71 119.9174 519.71 119.9174 559.7158 199.9301 559.7158 199.9301 599.6885 399.7583 599.6885 399.7583 559.7158 479.7368 559.7158 479.7368 519.71 519.7094 519.71 519.7094 479.7373 559.7153 479.7373 559.7153 399.7754 399.7583 399.7754 399.7583 439.7647 359.7856 439.7647 359.7856 479.7373 359.7856 479.7373 239.9028 479.7373 239.9028 439.7647 199.9301 439.7647 199.9301 399.7754 159.9233 399.7754 159.9233 359.7861 119.9174 359.7861 119.9174 239.9023 159.9233 239.9023 159.9233 199.8965 159.9233 199.8965 199.9301 199.8965 199.9301 159.9238 239.9028 159.9238 239.9028 119.9512 239.9028 119.9512 359.7856 119.9512 359.7856 159.9238 399.7583 159.9238 399.7583 199.8965 359.7856 199.8965 359.7856 239.9023 399.7583 239.9023 399.7583 279.875 439.7641 279.875 439.7641 279.875 439.7641 319.8477 479.7368 319.8477 479.7368 359.8193 519.7094 359.8193 519.7094 319.8477 559.7153 319.8477 559.7153 279.875 599.3501 279.875 599.3501 239.9023 638.9848 239.9023 638.9848 199.8965 559.7153 199.8965" style="fill: #f2bb87; stroke-width: 0px;"/>
  </g>
</svg>